# Blender v2.79 (sub 0) OBJ File: ''
# www.blender.org
o Cube
v 1.672377 0.450714 0.003340
v 0.958148 -1.340469 0.533943
v -0.234548 -1.340469 -1.071509
v 0.479681 0.450715 -1.602112
v 0.234548 1.340468 1.071509
v -0.479682 -0.450715 1.602112
v -1.672377 -0.450714 -0.003340
v -0.958148 1.340469 -0.533943
vn 0.5532 -0.7739 0.3083
vn 0.2769 0.2602 -0.9250
vn 0.9655 0.2602 0.0019
vn -0.5532 0.7739 -0.3083
vn -0.2769 -0.2602 0.9250
vn 0.1354 0.7739 0.6186
vn -0.1354 -0.7739 -0.6186
vn -0.9655 -0.2602 -0.0019
s 1
f 2//1 4//2 1//3
f 8//4 6//5 5//6
f 5//6 2//1 1//3
f 6//5 3//7 2//1
f 3//7 8//4 4//2
f 1//3 8//4 5//6
f 2//1 3//7 4//2
f 8//4 7//8 6//5
f 5//6 6//5 2//1
f 6//5 7//8 3//7
f 3//7 7//8 8//4
f 1//3 4//2 8//4
