# Blender v2.79 (sub 0) OBJ File: ''
# www.blender.org
o Cube
v 1.089566 0.450714 -1.268741
v 1.028553 -1.340469 -0.381081
v -0.966740 -1.340469 -0.518226
v -0.905726 0.450715 -1.405886
v 0.966740 1.340468 0.518226
v 0.905726 -0.450715 1.405886
v -1.089566 -0.450714 1.268741
v -1.028553 1.340469 0.381081
vn 0.5938 -0.7739 -0.2200
vn -0.5229 0.2602 -0.8117
vn 0.6290 0.2602 -0.7325
vn -0.5938 0.7739 0.2200
vn 0.5229 -0.2602 0.8117
vn 0.5581 0.7739 0.2992
vn -0.5581 -0.7739 -0.2992
vn -0.6290 -0.2602 0.7325
s 1
f 2//1 4//2 1//3
f 8//4 6//5 5//6
f 5//6 2//1 1//3
f 6//5 3//7 2//1
f 3//7 8//4 4//2
f 1//3 8//4 5//6
f 2//1 3//7 4//2
f 8//4 7//8 6//5
f 5//6 6//5 2//1
f 6//5 7//8 3//7
f 3//7 7//8 8//4
f 1//3 4//2 8//4
