# Blender v2.79 (sub 0) OBJ File: ''
# www.blender.org
o Cube
v 1.446896 0.616315 0.725704
v 0.848345 -1.291156 0.783089
v 0.410537 -1.212436 -1.166816
v 1.009089 0.695035 -1.224200
v -0.410537 1.212435 1.166816
v -1.009089 -0.695035 1.224200
v -1.446896 -0.616314 -0.725705
v -0.848345 1.291156 -0.783089
vn 0.4898 -0.7454 0.4521
vn 0.5826 0.4013 -0.7068
vn 0.8354 0.3558 0.4190
vn -0.4898 0.7454 -0.4521
vn -0.5826 -0.4013 0.7068
vn -0.2370 0.7000 0.6736
vn 0.2370 -0.7000 -0.6736
vn -0.8354 -0.3558 -0.4190
s 1
f 2//1 4//2 1//3
f 8//4 6//5 5//6
f 5//6 2//1 1//3
f 6//5 3//7 2//1
f 3//7 8//4 4//2
f 1//3 8//4 5//6
f 2//1 3//7 4//2
f 8//4 7//8 6//5
f 5//6 6//5 2//1
f 6//5 7//8 3//7
f 3//7 7//8 8//4
f 1//3 4//2 8//4
