# Blender v2.79 (sub 0) OBJ File: ''
# www.blender.org
o Cube
v 1.521013 0.450714 0.695252
v 0.651216 -1.340469 0.882644
v 0.229993 -1.340469 -1.072496
v 1.099790 0.450715 -1.259888
v -0.229993 1.340468 1.072496
v -1.099791 -0.450715 1.259888
v -1.521013 -0.450714 -0.695252
v -0.651216 1.340469 -0.882644
vn 0.3760 -0.7739 0.5096
vn 0.6349 0.2602 -0.7274
vn 0.8781 0.2602 0.4014
vn -0.3760 0.7739 -0.5096
vn -0.6349 -0.2602 0.7274
vn -0.1328 0.7739 0.6192
vn 0.1328 -0.7739 -0.6192
vn -0.8781 -0.2602 -0.4014
s 1
f 2//1 4//2 1//3
f 8//4 6//5 5//6
f 5//6 2//1 1//3
f 6//5 3//7 2//1
f 3//7 8//4 4//2
f 1//3 8//4 5//6
f 2//1 3//7 4//2
f 8//4 7//8 6//5
f 5//6 6//5 2//1
f 6//5 7//8 3//7
f 3//7 7//8 8//4
f 1//3 4//2 8//4
