# Blender v2.79 (sub 0) OBJ File: ''
# www.blender.org
o Cube
v 1.411646 0.450714 0.896723
v 0.524394 -1.340469 0.963408
v 0.374500 -1.340469 -1.030967
v 1.261752 0.450715 -1.097652
v -0.374500 1.340468 1.030968
v -1.261752 -0.450715 1.097651
v -1.411646 -0.450714 -0.896724
v -0.524394 1.340469 -0.963408
vn 0.3027 -0.7739 0.5562
vn 0.7284 0.2602 -0.6337
vn 0.8150 0.2602 0.5177
vn -0.3027 0.7739 -0.5562
vn -0.7284 -0.2602 0.6337
vn -0.2162 0.7739 0.5952
vn 0.2162 -0.7739 -0.5952
vn -0.8150 -0.2602 -0.5177
s 1
f 2//1 4//2 1//3
f 8//4 6//5 5//6
f 5//6 2//1 1//3
f 6//5 3//7 2//1
f 3//7 8//4 4//2
f 1//3 8//4 5//6
f 2//1 3//7 4//2
f 8//4 7//8 6//5
f 5//6 6//5 2//1
f 6//5 7//8 3//7
f 3//7 7//8 8//4
f 1//3 4//2 8//4
