# Blender v2.79 (sub 0) OBJ File: ''
# www.blender.org
o Cube
v 1.073955 0.828786 -1.076910
v 0.519974 -1.085553 -1.245473
v -1.377627 -0.568361 -0.882672
v -0.823646 1.345978 -0.714109
v 1.377627 0.568361 0.882672
v 0.823645 -1.345978 0.714109
v -1.073955 -0.828785 1.076910
v -0.519974 1.085552 1.245473
vn 0.3002 -0.6267 -0.7190
vn -0.4755 0.7771 -0.4123
vn 0.6200 0.4785 -0.6218
vn -0.3002 0.6267 0.7190
vn 0.4755 -0.7771 0.4123
vn 0.7954 0.3281 0.5096
vn -0.7953 -0.3281 -0.5096
vn -0.6200 -0.4785 0.6218
s 1
f 2//1 4//2 1//3
f 8//4 6//5 5//6
f 5//6 2//1 1//3
f 6//5 3//7 2//1
f 3//7 8//4 4//2
f 1//3 8//4 5//6
f 2//1 3//7 4//2
f 8//4 7//8 6//5
f 5//6 6//5 2//1
f 6//5 7//8 3//7
f 3//7 7//8 8//4
f 1//3 4//2 8//4
