# Blender v2.79 (sub 0) OBJ File: ''
# www.blender.org
o Cube
v 1.332554 1.062186 0.309935
v 1.305984 -0.384512 -1.070774
v -0.522379 0.192468 -1.640145
v -0.495809 1.639166 -0.259436
v 0.522379 -0.192468 1.640145
v 0.495808 -1.639167 0.259436
v -1.332554 -1.062186 -0.309935
v -1.305984 0.384512 1.070774
vn 0.7540 -0.2220 -0.6182
vn -0.2862 0.9463 -0.1498
vn 0.7693 0.6132 0.1789
vn -0.7540 0.2220 0.6182
vn 0.2862 -0.9463 0.1498
vn 0.3016 -0.1111 0.9469
vn -0.3016 0.1111 -0.9469
vn -0.7693 -0.6132 -0.1789
s 1
f 2//1 4//2 1//3
f 8//4 6//5 5//6
f 5//6 2//1 1//3
f 6//5 3//7 2//1
f 3//7 8//4 4//2
f 1//3 8//4 5//6
f 2//1 3//7 4//2
f 8//4 7//8 6//5
f 5//6 6//5 2//1
f 6//5 7//8 3//7
f 3//7 7//8 8//4
f 1//3 4//2 8//4
