# Blender v2.79 (sub 0) OBJ File: ''
# www.blender.org
o Cube
v 1.544092 0.740235 0.260442
v 0.825428 0.161837 -1.514093
v -0.940800 0.987239 -1.067827
v -0.222134 1.565637 0.706708
v 0.940800 -0.987239 1.067827
v 0.222134 -1.565637 -0.706709
v -1.544093 -0.740235 -0.260442
v -0.825428 -0.161837 1.514093
vn 0.4765 0.0934 -0.8741
vn -0.1282 0.9039 0.4080
vn 0.8915 0.4274 0.1504
vn -0.4765 -0.0934 0.8741
vn 0.1282 -0.9039 -0.4080
vn 0.5432 -0.5700 0.6165
vn -0.5432 0.5700 -0.6165
vn -0.8915 -0.4274 -0.1504
s 1
f 2//1 4//2 1//3
f 8//4 6//5 5//6
f 5//6 2//1 1//3
f 6//5 3//7 2//1
f 3//7 8//4 4//2
f 1//3 8//4 5//6
f 2//1 3//7 4//2
f 8//4 7//8 6//5
f 5//6 6//5 2//1
f 6//5 7//8 3//7
f 3//7 7//8 8//4
f 1//3 4//2 8//4
