# Blender v2.79 (sub 0) OBJ File: ''
# www.blender.org
o Cube
v 1.560048 0.737574 0.149110
v 0.722124 0.145339 -1.567614
v -1.007913 0.980497 -1.011304
v -0.169989 1.572732 0.705420
v 1.007914 -0.980498 1.011303
v 0.169988 -1.572732 -0.705420
v -1.560049 -0.737574 -0.149109
v -0.722124 -0.145339 1.567614
vn 0.4169 0.0839 -0.9051
vn -0.0981 0.9080 0.4073
vn 0.9007 0.4258 0.0861
vn -0.4169 -0.0839 0.9051
vn 0.0981 -0.9080 -0.4073
vn 0.5819 -0.5661 0.5838
vn -0.5819 0.5661 -0.5838
vn -0.9007 -0.4258 -0.0861
s 1
f 2//1 4//2 1//3
f 8//4 6//5 5//6
f 5//6 2//1 1//3
f 6//5 3//7 2//1
f 3//7 8//4 4//2
f 1//3 8//4 5//6
f 2//1 3//7 4//2
f 8//4 7//8 6//5
f 5//6 6//5 2//1
f 6//5 7//8 3//7
f 3//7 7//8 8//4
f 1//3 4//2 8//4
