# Blender v2.79 (sub 0) OBJ File: ''
# www.blender.org
o Cube
v 1.405929 0.959183 -0.321454
v 0.550085 -0.304602 -1.613885
v -1.250885 0.414198 -1.124156
v -0.395041 1.677983 0.168275
v 1.250885 -0.414198 1.124155
v 0.395041 -1.677983 -0.168276
v -1.405929 -0.959183 0.321454
v -0.550085 0.304602 1.613885
vn 0.3176 -0.1758 -0.9318
vn -0.2281 0.9688 0.0971
vn 0.8117 0.5538 -0.1856
vn -0.3176 0.1758 0.9318
vn 0.2281 -0.9688 -0.0971
vn 0.7222 -0.2391 0.6490
vn -0.7222 0.2391 -0.6490
vn -0.8117 -0.5538 0.1856
s 1
f 2//1 4//2 1//3
f 8//4 6//5 5//6
f 5//6 2//1 1//3
f 6//5 3//7 2//1
f 3//7 8//4 4//2
f 1//3 8//4 5//6
f 2//1 3//7 4//2
f 8//4 7//8 6//5
f 5//6 6//5 2//1
f 6//5 7//8 3//7
f 3//7 7//8 8//4
f 1//3 4//2 8//4
