# Blender v2.79 (sub 0) OBJ File: ''
# www.blender.org
o Cube
v 1.480589 0.891076 -0.117648
v 0.609672 -0.104378 -1.617840
v -1.162407 0.664088 -1.098998
v -0.291490 1.659541 0.401194
v 1.162407 -0.664088 1.098998
v 0.291489 -1.659541 -0.401194
v -1.480589 -0.891075 0.117648
v -0.609672 0.104378 1.617840
vn 0.3520 -0.0602 -0.9340
vn -0.1683 0.9581 0.2316
vn 0.8548 0.5145 -0.0679
vn -0.3520 0.0602 0.9340
vn 0.1683 -0.9581 -0.2316
vn 0.6711 -0.3834 0.6345
vn -0.6711 0.3834 -0.6345
vn -0.8548 -0.5145 0.0679
s 1
f 2//1 4//2 1//3
f 8//4 6//5 5//6
f 5//6 2//1 1//3
f 6//5 3//7 2//1
f 3//7 8//4 4//2
f 1//3 8//4 5//6
f 2//1 3//7 4//2
f 8//4 7//8 6//5
f 5//6 6//5 2//1
f 6//5 7//8 3//7
f 3//7 7//8 8//4
f 1//3 4//2 8//4
