# Blender v2.79 (sub 0) OBJ File: ''
# www.blender.org
o Cube
v 0.954417 -0.833675 -1.180709
v 0.983597 -1.188542 0.787340
v -1.015265 -1.133830 0.826842
v -1.044444 -0.778963 -1.141207
v 1.015265 1.133830 -0.826842
v 1.044443 0.778963 1.141207
v -0.954418 0.833675 1.180708
v -0.983597 1.188542 -0.787340
vn 0.5679 -0.6862 0.4545
vn -0.6030 -0.4497 -0.6589
vn 0.5510 -0.4813 -0.6817
vn -0.5679 0.6862 -0.4545
vn 0.6030 0.4497 0.6589
vn 0.5861 0.6546 -0.4774
vn -0.5861 -0.6546 0.4774
vn -0.5510 0.4813 0.6817
s 1
f 2//1 4//2 1//3
f 8//4 6//5 5//6
f 5//6 2//1 1//3
f 6//5 3//7 2//1
f 3//7 8//4 4//2
f 1//3 8//4 5//6
f 2//1 3//7 4//2
f 8//4 7//8 6//5
f 5//6 6//5 2//1
f 6//5 7//8 3//7
f 3//7 7//8 8//4
f 1//3 4//2 8//4
