# Blender v2.79 (sub 0) OBJ File: ''
# www.blender.org
o Cube
v 0.979325 -0.929884 -1.084545
v 0.994877 -1.087976 0.909136
v -1.004899 -1.063710 0.926660
v -1.020451 -0.905618 -1.067022
v 1.004899 1.063710 -0.926659
v 1.020450 0.905618 1.067022
v -0.979325 0.929884 1.084545
v -0.994877 1.087976 -0.909136
vn 0.5744 -0.6281 0.5249
vn -0.5891 -0.5228 -0.6160
vn 0.5654 -0.5369 -0.6261
vn -0.5744 0.6281 -0.5249
vn 0.5891 0.5228 0.6160
vn 0.5802 0.6141 -0.5350
vn -0.5802 -0.6141 0.5350
vn -0.5654 0.5369 0.6261
s 1
f 2//1 4//2 1//3
f 8//4 6//5 5//6
f 5//6 2//1 1//3
f 6//5 3//7 2//1
f 3//7 8//4 4//2
f 1//3 8//4 5//6
f 2//1 3//7 4//2
f 8//4 7//8 6//5
f 5//6 6//5 2//1
f 6//5 7//8 3//7
f 3//7 7//8 8//4
f 1//3 4//2 8//4
