# Blender v2.79 (sub 0) OBJ File: ''
# www.blender.org
o Cube
v 1.379434 0.998468 0.316580
v 1.156839 -0.192560 -1.274616
v -0.717149 0.466726 -1.505943
v -0.494553 1.657754 0.085253
v 0.717149 -0.466727 1.505942
v 0.494553 -1.657754 -0.085253
v -1.379435 -0.998468 -0.316580
v -1.156838 0.192560 1.274616
vn 0.6679 -0.1111 -0.7359
vn -0.2855 0.9571 0.0492
vn 0.7964 0.5765 0.1828
vn -0.6679 0.1111 0.7359
vn 0.2855 -0.9571 -0.0492
vn 0.4140 -0.2694 0.8694
vn -0.4140 0.2694 -0.8694
vn -0.7964 -0.5765 -0.1828
s 1
f 2//1 4//2 1//3
f 8//4 6//5 5//6
f 5//6 2//1 1//3
f 6//5 3//7 2//1
f 3//7 8//4 4//2
f 1//3 8//4 5//6
f 2//1 3//7 4//2
f 8//4 7//8 6//5
f 5//6 6//5 2//1
f 6//5 7//8 3//7
f 3//7 7//8 8//4
f 1//3 4//2 8//4
