# Blender v2.79 (sub 0) OBJ File: ''
# www.blender.org
o Cube
v 1.571637 0.450714 -0.571676
v 1.083295 -1.340469 0.172088
v -0.588546 -1.340469 -0.925612
v -0.100204 0.450715 -1.669376
v 0.588547 1.340468 0.925612
v 0.100204 -0.450715 1.669376
v -1.571637 -0.450714 0.571676
v -1.083295 1.340469 -0.172088
vn 0.6254 -0.7739 0.0993
vn -0.0578 0.2602 -0.9638
vn 0.9074 0.2602 -0.3300
vn -0.6254 0.7739 -0.0993
vn 0.0578 -0.2602 0.9638
vn 0.3398 0.7739 0.5344
vn -0.3398 -0.7739 -0.5344
vn -0.9074 -0.2602 0.3300
s 1
f 2//1 4//2 1//3
f 8//4 6//5 5//6
f 5//6 2//1 1//3
f 6//5 3//7 2//1
f 3//7 8//4 4//2
f 1//3 8//4 5//6
f 2//1 3//7 4//2
f 8//4 7//8 6//5
f 5//6 6//5 2//1
f 6//5 7//8 3//7
f 3//7 7//8 8//4
f 1//3 4//2 8//4
