# Blender v2.79 (sub 0) OBJ File: ''
# www.blender.org
o Cube
v 1.591983 0.450714 0.512295
v 0.750125 -1.340469 0.800285
v 0.102779 -1.340469 -1.092053
v 0.944637 0.450715 -1.380042
v -0.102779 1.340468 1.092054
v -0.944637 -0.450715 1.380042
v -1.591983 -0.450714 -0.512296
v -0.750125 1.340469 -0.800285
vn 0.4331 -0.7739 0.4620
vn 0.5454 0.2602 -0.7967
vn 0.9191 0.2602 0.2958
vn -0.4331 0.7739 -0.4620
vn -0.5454 -0.2602 0.7967
vn -0.0593 0.7739 0.6305
vn 0.0593 -0.7739 -0.6305
vn -0.9191 -0.2602 -0.2958
s 1
f 2//1 4//2 1//3
f 8//4 6//5 5//6
f 5//6 2//1 1//3
f 6//5 3//7 2//1
f 3//7 8//4 4//2
f 1//3 8//4 5//6
f 2//1 3//7 4//2
f 8//4 7//8 6//5
f 5//6 6//5 2//1
f 6//5 7//8 3//7
f 3//7 7//8 8//4
f 1//3 4//2 8//4
