# Blender v2.79 (sub 0) OBJ File: ''
# www.blender.org
o Cube
v 1.191342 0.949511 -0.824095
v 0.494128 -0.819708 -1.443578
v -1.371712 -0.228315 -1.032607
v -0.674497 1.540903 -0.413125
v 1.371712 0.228315 1.032607
v 0.674497 -1.540903 0.413125
v -1.191343 -0.949510 0.824095
v -0.494128 0.819708 1.443578
vn 0.2853 -0.4733 -0.8334
vn -0.3894 0.8896 -0.2385
vn 0.6878 0.5482 -0.4758
vn -0.2853 0.4733 0.8334
vn 0.3894 -0.8896 0.2385
vn 0.7920 0.1318 0.5961
vn -0.7920 -0.1318 -0.5961
vn -0.6878 -0.5482 0.4758
s 1
f 2//1 4//2 1//3
f 8//4 6//5 5//6
f 5//6 2//1 1//3
f 6//5 3//7 2//1
f 3//7 8//4 4//2
f 1//3 8//4 5//6
f 2//1 3//7 4//2
f 8//4 7//8 6//5
f 5//6 6//5 2//1
f 6//5 7//8 3//7
f 3//7 7//8 8//4
f 1//3 4//2 8//4
