# Blender v2.79 (sub 0) OBJ File: ''
# www.blender.org
o Cube
v 1.000000 -0.929153 -1.066149
v 1.000000 -1.066150 0.929153
v -1.000000 -1.066150 0.929153
v -1.000000 -0.929153 -1.066150
v 1.000000 1.066149 -0.929152
v 0.999999 0.929153 1.066150
v -1.000000 0.929153 1.066149
v -1.000000 1.066150 -0.929153
vn 0.5773 -0.6155 0.5364
vn -0.5773 -0.5364 -0.6155
vn 0.5773 -0.5364 -0.6155
vn -0.5773 0.6155 -0.5364
vn 0.5773 0.5364 0.6155
vn 0.5773 0.6155 -0.5364
vn -0.5773 -0.6155 0.5364
vn -0.5773 0.5364 0.6155
s 1
f 2//1 4//2 1//3
f 8//4 6//5 5//6
f 5//6 2//1 1//3
f 6//5 3//7 2//1
f 3//7 8//4 4//2
f 1//3 8//4 5//6
f 2//1 3//7 4//2
f 8//4 7//8 6//5
f 5//6 6//5 2//1
f 6//5 7//8 3//7
f 3//7 7//8 8//4
f 1//3 4//2 8//4
