# Blender v2.79 (sub 0) OBJ File: ''
# www.blender.org
o Cube
v 0.972839 0.625149 -1.289485
v 0.582762 -1.310439 -0.971152
v -1.343493 -0.871138 -0.660414
v -0.953415 1.064451 -0.978746
v 1.343493 0.871138 0.660414
v 0.953415 -1.064451 0.978747
v -0.972839 -0.625149 1.289485
v -0.582762 1.310439 0.971152
vn 0.3364 -0.7566 -0.5607
vn -0.5504 0.6146 -0.5651
vn 0.5617 0.3609 -0.7445
vn -0.3364 0.7566 0.5607
vn 0.5504 -0.6146 0.5651
vn 0.7757 0.5029 0.3813
vn -0.7757 -0.5029 -0.3813
vn -0.5617 -0.3609 0.7445
s 1
f 2//1 4//2 1//3
f 8//4 6//5 5//6
f 5//6 2//1 1//3
f 6//5 3//7 2//1
f 3//7 8//4 4//2
f 1//3 8//4 5//6
f 2//1 3//7 4//2
f 8//4 7//8 6//5
f 5//6 6//5 2//1
f 6//5 7//8 3//7
f 3//7 7//8 8//4
f 1//3 4//2 8//4
