# Blender v2.79 (sub 0) OBJ File: ''
# www.blender.org
o Cube
v 1.194069 0.450714 -1.170921
v 1.057373 -1.340469 -0.291730
v -0.918883 -1.340469 -0.598997
v -0.782186 0.450715 -1.478188
v 0.918883 1.340468 0.598997
v 0.782186 -0.450715 1.478189
v -1.194069 -0.450714 1.170921
v -1.057373 1.340469 0.291730
vn 0.6105 -0.7739 -0.1684
vn -0.4516 0.2602 -0.8534
vn 0.6894 0.2602 -0.6760
vn -0.6105 0.7739 0.1684
vn 0.4516 -0.2602 0.8534
vn 0.5305 0.7739 0.3458
vn -0.5305 -0.7739 -0.3458
vn -0.6894 -0.2602 0.6760
s 1
f 2//1 4//2 1//3
f 8//4 6//5 5//6
f 5//6 2//1 1//3
f 6//5 3//7 2//1
f 3//7 8//4 4//2
f 1//3 8//4 5//6
f 2//1 3//7 4//2
f 8//4 7//8 6//5
f 5//6 6//5 2//1
f 6//5 7//8 3//7
f 3//7 7//8 8//4
f 1//3 4//2 8//4
