# Blender v2.79 (sub 0) OBJ File: ''
# www.blender.org
o Cube
v 0.143800 -1.218210 1.222818
v -0.187069 0.724864 1.561915
v -1.559994 0.744859 0.107721
v -1.229124 -1.198215 -0.231375
v 1.559994 -0.744859 -0.107721
v 1.229124 1.198216 0.231375
v -0.143801 1.218210 -1.222819
v 0.187069 -0.724864 -1.561915
vn -0.7081 -0.2367 0.6653
vn 0.7081 0.2367 -0.6653
vn 0.6865 -0.0100 0.7271
vn -0.1654 0.9715 0.1695
vn -0.6865 0.0100 -0.7271
vn 0.1654 -0.9715 -0.1695
s off
f 1//1 2//1 3//1 4//1
f 5//2 8//2 7//2 6//2
f 1//3 5//3 6//3 2//3
f 2//4 6//4 7//4 3//4
f 3//5 7//5 8//5 4//5
f 5//6 1//6 4//6 8//6
