# Blender v2.79 (sub 0) OBJ File: ''
# www.blender.org
o Cube
v 0.130463 -1.212215 1.230249
v -0.190360 0.734668 1.556929
v -1.555990 0.754786 0.095884
v -1.235167 -1.192098 -0.230795
v 1.555990 -0.754785 -0.095884
v 1.235167 1.192098 0.230795
v -0.130463 1.212215 -1.230249
v 0.190360 -0.734668 -1.556929
vn -0.7128 -0.2287 0.6631
vn 0.7128 0.2287 -0.6631
vn 0.6828 -0.0101 0.7305
vn -0.1604 0.9734 0.1633
vn -0.6828 0.0101 -0.7305
vn 0.1604 -0.9734 -0.1633
s off
f 1//1 2//1 3//1 4//1
f 5//2 8//2 7//2 6//2
f 1//3 5//3 6//3 2//3
f 2//4 6//4 7//4 3//4
f 3//5 7//5 8//5 4//5
f 5//6 1//6 4//6 8//6
