# Blender v2.79 (sub 0) OBJ File: ''
# www.blender.org
o Cube
v 1.251211 -1.158478 0.303974
v 0.651707 0.256342 1.584161
v -1.256320 -0.184599 1.177957
v -0.656816 -1.599419 -0.102231
v 1.256321 0.184599 -1.177956
v 0.656816 1.599419 0.102231
v -1.251211 1.158478 -0.303974
v -0.651707 -0.256342 -1.584161
vn -0.0026 -0.6715 0.7410
vn 0.0026 0.6715 -0.7410
vn 0.9540 0.2205 0.2031
vn -0.2998 0.7074 0.6401
vn -0.9540 -0.2205 -0.2031
vn 0.2998 -0.7074 -0.6401
s off
f 1//1 2//1 3//1 4//1
f 5//2 8//2 7//2 6//2
f 1//3 5//3 6//3 2//3
f 2//4 6//4 7//4 3//4
f 3//5 7//5 8//5 4//5
f 5//6 1//6 4//6 8//6
