# Blender v2.79 (sub 0) OBJ File: ''
# www.blender.org
o Cube
v -0.398229 -1.130584 1.250277
v -0.346303 0.857213 1.464671
v -1.337881 1.069049 -0.259249
v -1.389807 -0.918749 -0.473642
v 1.337881 -1.069048 0.259249
v 1.389807 0.918749 0.473642
v 0.398229 1.130584 -1.250277
v 0.346303 -0.857213 -1.464671
vn -0.8681 -0.0308 0.4955
vn 0.8681 0.0308 -0.4955
vn 0.4958 -0.1059 0.8620
vn 0.0260 0.9939 0.1072
vn -0.4958 0.1059 -0.8620
vn -0.0260 -0.9939 -0.1072
s off
f 1//1 2//1 3//1 4//1
f 5//2 8//2 7//2 6//2
f 1//3 5//3 6//3 2//3
f 2//4 6//4 7//4 3//4
f 3//5 7//5 8//5 4//5
f 5//6 1//6 4//6 8//6
