# Blender v2.79 (sub 0) OBJ File: ''
# www.blender.org
o Cube
v 1.040272 -1.072017 -0.876705
v 0.949816 -0.923582 1.115726
v -1.048122 -0.922466 1.024937
v -0.957665 -1.070902 -0.967495
v 1.048122 0.922466 -1.024937
v 0.957665 1.070902 0.967495
v -1.040273 1.072017 0.876705
v -0.949816 0.923582 -1.115726
vn -0.0039 -0.9972 0.0741
vn 0.0039 0.9972 -0.0741
vn 0.9990 -0.0006 0.0454
vn -0.0452 0.0742 0.9962
vn -0.9990 0.0006 -0.0454
vn 0.0452 -0.0742 -0.9962
s off
f 1//1 2//1 3//1 4//1
f 5//2 8//2 7//2 6//2
f 1//3 5//3 6//3 2//3
f 2//4 6//4 7//4 3//4
f 3//5 7//5 8//5 4//5
f 5//6 1//6 4//6 8//6
