# Blender v2.79 (sub 0) OBJ File: ''
# www.blender.org
o Cube
v 1.069092 -1.360207 -0.082939
v 0.545354 -0.403717 1.593613
v -1.362432 -0.396231 0.993367
v -0.838694 -1.352720 -0.683185
v 1.362433 0.396231 -0.993367
v 0.838693 1.352720 0.683185
v -1.069093 1.360206 0.082939
v -0.545354 0.403717 -1.593613
vn -0.1467 -0.8782 0.4552
vn 0.1467 0.8782 -0.4552
vn 0.9539 -0.0037 0.3001
vn -0.2619 0.4782 0.8383
vn -0.9539 0.0037 -0.3001
vn 0.2619 -0.4782 -0.8383
s off
f 1//1 2//1 3//1 4//1
f 5//2 8//2 7//2 6//2
f 1//3 5//3 6//3 2//3
f 2//4 6//4 7//4 3//4
f 3//5 7//5 8//5 4//5
f 5//6 1//6 4//6 8//6
