# Blender v2.79 (sub 0) OBJ File: ''
# www.blender.org
o Cube
v 1.004415 -1.007413 -0.988064
v 0.995387 -0.992643 1.011862
v -1.004593 -0.992532 1.002833
v -0.995564 -1.007302 -0.997093
v 1.004593 0.992532 -1.002832
v 0.995564 1.007302 0.997093
v -1.004415 1.007413 0.988063
v -0.995387 0.992643 -1.011862
vn -0.0001 -1.0000 0.0074
vn 0.0001 1.0000 -0.0074
vn 1.0000 -0.0001 0.0045
vn -0.0045 0.0074 1.0000
vn -1.0000 0.0001 -0.0045
vn 0.0045 -0.0074 -1.0000
s off
f 1//1 2//1 3//1 4//1
f 5//2 8//2 7//2 6//2
f 1//3 5//3 6//3 2//3
f 2//4 6//4 7//4 3//4
f 3//5 7//5 8//5 4//5
f 5//6 1//6 4//6 8//6
