# Blender v2.79 (sub 0) OBJ File: ''
# www.blender.org
o Cube
v 1.081065 -0.838458 1.062208
v 0.273122 0.956120 1.418181
v -1.506314 0.275772 0.809302
v -0.698370 -1.518806 0.453328
v 1.506314 -0.275772 -0.809302
v 0.698370 1.518806 -0.453328
v -1.081066 0.838458 -1.062208
v -0.273122 -0.956120 -1.418181
vn -0.2126 -0.2813 0.9358
vn 0.2126 0.2813 -0.9358
vn 0.8897 0.3402 0.3044
vn -0.4040 0.8973 0.1780
vn -0.8897 -0.3402 -0.3044
vn 0.4040 -0.8973 -0.1780
s off
f 1//1 2//1 3//1 4//1
f 5//2 8//2 7//2 6//2
f 1//3 5//3 6//3 2//3
f 2//4 6//4 7//4 3//4
f 3//5 7//5 8//5 4//5
f 5//6 1//6 4//6 8//6
