# Blender v2.79 (sub 0) OBJ File: ''
# www.blender.org
o Cube
v 0.169567 0.232219 1.708017
v -0.108618 1.689326 0.366580
v -1.539227 0.604713 -0.514880
v -1.261042 -0.852394 0.826557
v 1.539228 -0.604712 0.514880
v 1.261042 0.852394 -0.826558
v -0.169567 -0.232219 -1.708017
v 0.108618 -1.689326 -0.366580
vn -0.6848 0.4185 0.5966
vn 0.6848 -0.4185 -0.5966
vn 0.7153 0.5423 0.4407
vn -0.1391 0.7286 -0.6707
vn -0.7153 -0.5423 -0.4407
vn 0.1391 -0.7286 0.6707
s off
f 1//1 2//1 3//1 4//1
f 5//2 8//2 7//2 6//2
f 1//3 5//3 6//3 2//3
f 2//4 6//4 7//4 3//4
f 3//5 7//5 8//5 4//5
f 5//6 1//6 4//6 8//6
