# Blender v2.79 (sub 0) OBJ File: ''
# www.blender.org
o Cube
v 0.450196 -1.337097 1.004737
v -0.077744 0.475979 1.663550
v -1.615251 0.493020 0.384573
v -1.087311 -1.320056 -0.274241
v 1.615251 -0.493020 -0.384573
v 1.087311 1.320056 0.274240
v -0.450196 1.337097 -1.004737
v 0.077744 -0.475979 -1.663550
vn -0.5825 -0.4220 0.6947
vn 0.5825 0.4220 -0.6947
vn 0.7688 -0.0085 0.6395
vn -0.2640 0.9065 0.3294
vn -0.7688 0.0085 -0.6395
vn 0.2640 -0.9065 -0.3294
s off
f 1//1 2//1 3//1 4//1
f 5//2 8//2 7//2 6//2
f 1//3 5//3 6//3 2//3
f 2//4 6//4 7//4 3//4
f 3//5 7//5 8//5 4//5
f 5//6 1//6 4//6 8//6
