# Blender v2.79 (sub 0) OBJ File: ''
# www.blender.org
o Cube
v -0.855787 1.368845 0.627608
v 0.788002 1.456252 -0.508314
v 0.017015 0.073478 -1.730408
v -1.626774 -0.013930 -0.594486
v -0.017015 -0.073477 1.730408
v 1.626774 0.013929 0.594485
v 0.855787 -1.368845 -0.627608
v -0.788002 -1.456252 0.508314
vn -0.4194 0.7212 -0.5514
vn 0.4194 -0.7212 0.5514
vn 0.3855 0.6914 0.6110
vn 0.8219 0.0437 -0.5680
vn -0.3855 -0.6914 -0.6110
vn -0.8219 -0.0437 0.5680
s off
f 1//1 2//1 3//1 4//1
f 5//2 8//2 7//2 6//2
f 1//3 5//3 6//3 2//3
f 2//4 6//4 7//4 3//4
f 3//5 7//5 8//5 4//5
f 5//6 1//6 4//6 8//6
