# Blender v2.79 (sub 0) OBJ File: ''
# www.blender.org
o Cube
v 0.183903 -1.235840 1.199533
v -0.176489 0.694932 1.576681
v -1.571255 0.714555 0.143418
v -1.210863 -1.216216 -0.233730
v 1.571255 -0.714555 -0.143417
v 1.210863 1.216216 0.233729
v -0.183903 1.235839 -1.199534
v 0.176489 -0.694932 -1.576681
vn -0.6937 -0.2606 0.6715
vn 0.6937 0.2606 -0.6715
vn 0.6974 -0.0098 0.7166
vn -0.1802 0.9654 0.1886
vn -0.6974 0.0098 -0.7166
vn 0.1802 -0.9654 -0.1886
s off
f 1//1 2//1 3//1 4//1
f 5//2 8//2 7//2 6//2
f 1//3 5//3 6//3 2//3
f 2//4 6//4 7//4 3//4
f 3//5 7//5 8//5 4//5
f 5//6 1//6 4//6 8//6
