# Blender v2.79 (sub 0) OBJ File: ''
# www.blender.org
o Cube
v 0.573527 -1.373523 0.885721
v -0.012360 0.359369 1.694314
v -1.615684 0.375104 0.498862
v -1.029796 -1.357787 -0.309731
v 1.615684 -0.375104 -0.498862
v 1.029796 1.357788 0.309731
v -0.573527 1.373522 -0.885722
v 0.012360 -0.359369 -1.694314
vn -0.5211 -0.4992 0.6923
vn 0.5211 0.4992 -0.6923
vn 0.8017 -0.0079 0.5977
vn -0.2929 0.8664 0.4043
vn -0.8017 0.0079 -0.5977
vn 0.2929 -0.8664 -0.4043
s off
f 1//1 2//1 3//1 4//1
f 5//2 8//2 7//2 6//2
f 1//3 5//3 6//3 2//3
f 2//4 6//4 7//4 3//4
f 3//5 7//5 8//5 4//5
f 5//6 1//6 4//6 8//6
