# Blender v2.79 (sub 0) OBJ File: ''
# www.blender.org
o Cube
v -0.501238 -0.796632 1.454008
v -0.206930 1.171910 1.258494
v -1.206107 1.149235 -0.473883
v -1.500415 -0.819307 -0.278369
v 1.206107 -1.149234 0.473884
v 1.500415 0.819307 0.278369
v 0.501238 0.796631 -1.454008
v 0.206930 -1.171910 -1.258494
vn -0.8537 0.1763 0.4901
vn 0.8537 -0.1763 -0.4901
vn 0.4996 0.0113 0.8662
vn 0.1472 0.9843 -0.0978
vn -0.4996 -0.0113 -0.8662
vn -0.1472 -0.9843 0.0978
s off
f 1//1 2//1 3//1 4//1
f 5//2 8//2 7//2 6//2
f 1//3 5//3 6//3 2//3
f 2//4 6//4 7//4 3//4
f 3//5 7//5 8//5 4//5
f 5//6 1//6 4//6 8//6
