# Blender v2.79 (sub 0) OBJ File: ''
# www.blender.org
o Cube
v 0.930732 -1.417309 0.353514
v 0.294647 -0.086901 1.704591
v -1.510649 -0.075974 0.843901
v -0.874563 -1.406383 -0.507176
v 1.510649 0.075975 -0.843900
v 0.874562 1.406383 0.507176
v -0.930733 1.417309 -0.353515
v -0.294647 0.086901 -1.704591
vn -0.2900 -0.7466 0.5987
vn 0.2900 0.7466 -0.5987
vn 0.9026 -0.0055 0.4303
vn -0.3180 0.6652 0.6755
vn -0.9026 0.0055 -0.4303
vn 0.3180 -0.6652 -0.6755
s off
f 1//1 2//1 3//1 4//1
f 5//2 8//2 7//2 6//2
f 1//3 5//3 6//3 2//3
f 2//4 6//4 7//4 3//4
f 3//5 7//5 8//5 4//5
f 5//6 1//6 4//6 8//6
