# Blender v2.79 (sub 0) OBJ File: ''
# www.blender.org
o Cube
v 0.776292 -1.413762 0.631385
v 0.132899 0.134549 1.721695
v -1.581207 0.147842 0.691324
v -0.937814 -1.400470 -0.398987
v 1.581207 -0.147842 -0.691323
v 0.937813 1.400470 0.398987
v -0.776292 1.413762 -0.631385
v -0.132899 -0.134549 -1.721695
vn -0.4025 -0.6330 0.6614
vn 0.4025 0.6330 -0.6614
vn 0.8571 -0.0066 0.5152
vn -0.3217 0.7742 0.5452
vn -0.8571 0.0066 -0.5152
vn 0.3217 -0.7742 -0.5452
s off
f 1//1 2//1 3//1 4//1
f 5//2 8//2 7//2 6//2
f 1//3 5//3 6//3 2//3
f 2//4 6//4 7//4 3//4
f 3//5 7//5 8//5 4//5
f 5//6 1//6 4//6 8//6
