# Blender v2.79 (sub 0) OBJ File: ''
# www.blender.org
o Cube
v 1.198539 -1.200329 -0.350305
v 0.894745 -0.359592 1.438793
v -1.078393 -0.598574 1.216050
v -0.774598 -1.439310 -0.573048
v 1.078394 0.598574 -1.216050
v 0.774598 1.439310 0.573048
v -1.198540 1.200329 0.350305
v -0.894745 0.359592 -1.438793
vn 0.0601 -0.8995 0.4329
vn -0.0601 0.8995 -0.4329
vn 0.9866 0.1195 0.1114
vn -0.1519 0.4204 0.8945
vn -0.9866 -0.1195 -0.1114
vn 0.1519 -0.4204 -0.8945
s off
f 1//1 2//1 3//1 4//1
f 5//2 8//2 7//2 6//2
f 1//3 5//3 6//3 2//3
f 2//4 6//4 7//4 3//4
f 3//5 7//5 8//5 4//5
f 5//6 1//6 4//6 8//6
