# Blender v2.79 (sub 0) OBJ File: ''
# www.blender.org
o Cube
v 1.123487 -1.143712 -0.655514
v 0.967851 -0.656008 1.277857
v -1.023580 -0.791195 1.151649
v -0.867943 -1.278900 -0.781722
v 1.023580 0.791196 -1.151648
v 0.867943 1.278900 0.781722
v -1.123488 1.143712 0.655513
v -0.967851 0.656008 -1.277857
vn 0.0500 -0.9675 0.2481
vn -0.0500 0.9675 -0.2481
vn 0.9957 0.0676 0.0631
vn -0.0778 0.2439 0.9667
vn -0.9957 -0.0676 -0.0631
vn 0.0778 -0.2439 -0.9667
s off
f 1//1 2//1 3//1 4//1
f 5//2 8//2 7//2 6//2
f 1//3 5//3 6//3 2//3
f 2//4 6//4 7//4 3//4
f 3//5 7//5 8//5 4//5
f 5//6 1//6 4//6 8//6
