# Blender v2.79 (sub 0) OBJ File: ''
# www.blender.org
o Cube
v -0.740871 1.245581 0.948492
v 0.425503 1.549057 -0.647588
v -0.554759 0.113641 -1.636865
v -1.721133 -0.189834 -0.040784
v 0.554760 -0.113641 1.636865
v 1.721133 0.189834 0.040784
v 0.740871 -1.245581 -0.948492
v -0.425503 -1.549057 0.647588
vn -0.6478 0.6796 -0.3442
vn 0.6478 -0.6796 0.3442
vn 0.4901 0.7177 0.4946
vn 0.5832 0.1517 -0.7980
vn -0.4901 -0.7177 -0.4946
vn -0.5832 -0.1517 0.7980
s off
f 1//1 2//1 3//1 4//1
f 5//2 8//2 7//2 6//2
f 1//3 5//3 6//3 2//3
f 2//4 6//4 7//4 3//4
f 3//5 7//5 8//5 4//5
f 5//6 1//6 4//6 8//6
