# Blender v2.79 (sub 0) OBJ File: ''
# www.blender.org
o Cube
v -0.851948 1.416741 0.516747
v 0.836624 1.411385 -0.555025
v 0.086458 -0.022943 -1.729739
v -1.602114 -0.017586 -0.657967
v -0.086457 0.022943 1.729740
v 1.602114 0.017586 0.657967
v 0.851948 -1.416741 -0.516748
v -0.836624 -1.411385 0.555025
vn -0.3827 0.6969 -0.6065
vn 0.3827 -0.6969 0.6065
vn 0.3751 0.7172 0.5874
vn 0.8443 -0.0027 -0.5359
vn -0.3751 -0.7172 -0.5874
vn -0.8443 0.0027 0.5359
s off
f 1//1 2//1 3//1 4//1
f 5//2 8//2 7//2 6//2
f 1//3 5//3 6//3 2//3
f 2//4 6//4 7//4 3//4
f 3//5 7//5 8//5 4//5
f 5//6 1//6 4//6 8//6
