# Blender v2.79 (sub 0) OBJ File: ''
# www.blender.org
o Cube
v -0.043221 0.456888 1.670145
v -0.081442 1.725644 0.124573
v -1.431691 0.569061 -0.791473
v -1.393470 -0.699696 0.754100
v 1.431691 -0.569060 0.791473
v 1.393470 0.699696 -0.754100
v 0.043220 -0.456888 -1.670145
v 0.081442 -1.725644 -0.124573
vn -0.7375 0.5130 0.4393
vn 0.7375 -0.5130 -0.4393
vn 0.6751 0.5783 0.4580
vn -0.0191 0.6344 -0.7728
vn -0.6751 -0.5783 -0.4580
vn 0.0191 -0.6344 0.7728
s off
f 1//1 2//1 3//1 4//1
f 5//2 8//2 7//2 6//2
f 1//3 5//3 6//3 2//3
f 2//4 6//4 7//4 3//4
f 3//5 7//5 8//5 4//5
f 5//6 1//6 4//6 8//6
