# Blender v2.79 (sub 0) OBJ File: ''
# www.blender.org
o Cube
v 1.172160 -0.980748 0.814970
v 0.405751 0.727291 1.518688
v -1.424290 0.129284 0.977079
v -0.657880 -1.578755 0.273361
v 1.424290 -0.129284 -0.977079
v 0.657880 1.578755 -0.273361
v -1.172160 0.980748 -0.814970
v -0.405751 -0.727291 -1.518688
vn -0.1261 -0.4257 0.8960
vn 0.1261 0.4257 -0.8960
vn 0.9150 0.2990 0.2708
vn -0.3832 0.8540 0.3519
vn -0.9150 -0.2990 -0.2708
vn 0.3832 -0.8540 -0.3519
s off
f 1//1 2//1 3//1 4//1
f 5//2 8//2 7//2 6//2
f 1//3 5//3 6//3 2//3
f 2//4 6//4 7//4 3//4
f 3//5 7//5 8//5 4//5
f 5//6 1//6 4//6 8//6
