# Blender v2.79 (sub 0) OBJ File: ''
# www.blender.org
o Cube
v -0.837134 1.007758 1.132974
v 0.533921 1.637874 -0.179719
v -0.332864 0.542292 -1.610938
v -1.703918 -0.087823 -0.298244
v 0.332864 -0.542292 1.610938
v 1.703918 0.087823 0.298244
v 0.837134 -1.007758 -1.132974
v -0.533921 -1.637873 0.179719
vn -0.5850 0.7750 -0.2390
vn 0.5850 -0.7750 0.2390
vn 0.4334 0.5478 0.7156
vn 0.6855 0.3151 -0.6563
vn -0.4334 -0.5478 -0.7156
vn -0.6855 -0.3151 0.6563
s off
f 1//1 2//1 3//1 4//1
f 5//2 8//2 7//2 6//2
f 1//3 5//3 6//3 2//3
f 2//4 6//4 7//4 3//4
f 3//5 7//5 8//5 4//5
f 5//6 1//6 4//6 8//6
