# Blender v2.79 (sub 0) OBJ File: ''
# www.blender.org
o Cube
v 1.087904 -1.107722 -0.767735
v 0.985439 -0.766871 1.200341
v -1.010432 -0.860781 1.112692
v -0.907966 -1.201631 -0.855384
v 1.010432 0.860781 -1.112692
v 0.907965 1.201631 0.855384
v -1.087905 1.107722 0.767734
v -0.985439 0.766871 -1.200341
vn 0.0387 -0.9843 0.1725
vn -0.0387 0.9843 -0.1725
vn 0.9979 0.0470 0.0438
vn -0.0512 0.1704 0.9840
vn -0.9979 -0.0470 -0.0438
vn 0.0512 -0.1704 -0.9840
s off
f 1//1 2//1 3//1 4//1
f 5//2 8//2 7//2 6//2
f 1//3 5//3 6//3 2//3
f 2//4 6//4 7//4 3//4
f 3//5 7//5 8//5 4//5
f 5//6 1//6 4//6 8//6
