# Blender v2.79 (sub 0) OBJ File: ''
# www.blender.org
o Cube
v 0.885188 -1.420014 0.447215
v 0.240042 -0.014380 1.715276
v -1.537216 -0.002679 0.798097
v -0.892069 -1.408313 -0.469964
v 1.537216 0.002680 -0.798097
v 0.892069 1.408314 0.469964
v -0.885189 1.420014 -0.447215
v -0.240042 0.014380 -1.715276
vn -0.3260 -0.7113 0.6227
vn 0.3260 0.7113 -0.6227
vn 0.8886 -0.0059 0.4586
vn -0.3226 0.7028 0.6340
vn -0.8886 0.0059 -0.4586
vn 0.3226 -0.7028 -0.6340
s off
f 1//1 2//1 3//1 4//1
f 5//2 8//2 7//2 6//2
f 1//3 5//3 6//3 2//3
f 2//4 6//4 7//4 3//4
f 3//5 7//5 8//5 4//5
f 5//6 1//6 4//6 8//6
