# Blender v2.79 (sub 0) OBJ File: ''
# www.blender.org
o Cube
v -0.824542 1.507375 0.218976
v 0.931421 1.276045 -0.710046
v 0.203116 -0.306417 -1.692587
v -1.552846 -0.075086 -0.763565
v -0.203116 0.306417 1.692587
v 1.552846 0.075086 0.763565
v 0.824542 -1.507375 -0.218976
v -0.931421 -1.276045 0.710046
vn -0.3107 0.6005 -0.7368
vn 0.3107 -0.6005 0.7368
vn 0.3642 0.7912 0.4913
vn 0.8780 -0.1157 -0.4645
vn -0.3642 -0.7912 -0.4913
vn -0.8780 0.1157 0.4645
s off
f 1//1 2//1 3//1 4//1
f 5//2 8//2 7//2 6//2
f 1//3 5//3 6//3 2//3
f 2//4 6//4 7//4 3//4
f 3//5 7//5 8//5 4//5
f 5//6 1//6 4//6 8//6
