# Blender v2.79 (sub 0) OBJ File: ''
# www.blender.org
o Cube
v 0.952790 -0.662803 1.285645
v 0.146433 1.167382 1.271132
v -1.574853 0.403662 0.597406
v -0.768496 -1.426523 0.611919
v 1.574853 -0.403661 -0.597406
v 0.768495 1.426523 -0.611919
v -0.952790 0.662803 -1.285645
v -0.146433 -1.167382 -1.271132
vn -0.3110 -0.1296 0.9415
vn 0.3110 0.1296 -0.9415
vn 0.8606 0.3819 0.3369
vn -0.4032 0.9151 -0.0073
vn -0.8606 -0.3819 -0.3369
vn 0.4032 -0.9151 0.0073
s off
f 1//1 2//1 3//1 4//1
f 5//2 8//2 7//2 6//2
f 1//3 5//3 6//3 2//3
f 2//4 6//4 7//4 3//4
f 3//5 7//5 8//5 4//5
f 5//6 1//6 4//6 8//6
