# Blender v2.79 (sub 0) OBJ File: ''
# www.blender.org
o Cube
v 1.100242 -1.287891 -0.361666
v 0.698296 -0.592731 1.470052
v -1.254792 -0.587402 1.039450
v -0.852845 -1.282562 -0.792269
v 1.254793 0.587402 -1.039449
v 0.852845 1.282562 0.792269
v -1.100243 1.287891 0.361666
v -0.698296 0.592731 -1.470052
vn -0.0773 -0.9376 0.3389
vn 0.0773 0.9376 -0.3389
vn 0.9765 -0.0027 0.2153
vn -0.2010 0.3476 0.9159
vn -0.9765 0.0027 -0.2153
vn 0.2010 -0.3476 -0.9159
s off
f 1//1 2//1 3//1 4//1
f 5//2 8//2 7//2 6//2
f 1//3 5//3 6//3 2//3
f 2//4 6//4 7//4 3//4
f 3//5 7//5 8//5 4//5
f 5//6 1//6 4//6 8//6
