# Blender v2.79 (sub 0) OBJ File: ''
# www.blender.org
o Cube
v 0.421157 -1.327474 1.029777
v -0.091143 0.501823 1.655254
v -1.613186 0.519159 0.357917
v -1.100886 -1.310138 -0.267561
v 1.613186 -0.519159 -0.357916
v 1.100886 1.310138 0.267561
v -0.421157 1.327474 -1.029777
v 0.091143 -0.501823 -1.655254
vn -0.5960 -0.4042 0.6938
vn 0.5960 0.4042 -0.6938
vn 0.7610 -0.0087 0.6487
vn -0.2562 0.9146 0.3127
vn -0.7610 0.0087 -0.6487
vn 0.2562 -0.9146 -0.3127
s off
f 1//1 2//1 3//1 4//1
f 5//2 8//2 7//2 6//2
f 1//3 5//3 6//3 2//3
f 2//4 6//4 7//4 3//4
f 3//5 7//5 8//5 4//5
f 5//6 1//6 4//6 8//6
