# Blender v2.79 (sub 0) OBJ File: ''
# www.blender.org
o Cube
v 0.823929 -1.418287 0.556421
v 0.176427 0.072795 1.721503
v -1.564796 0.085427 0.737642
v -0.917294 -1.405655 -0.427440
v 1.564796 -0.085427 -0.737642
v 0.917294 1.405655 0.427440
v -0.823929 1.418287 -0.556421
v -0.176427 -0.072795 -1.721503
vn -0.3704 -0.6664 0.6470
vn 0.3704 0.6664 -0.6470
vn 0.8706 -0.0063 0.4919
vn -0.3238 0.7455 0.5825
vn -0.8706 0.0063 -0.4919
vn 0.3238 -0.7455 -0.5825
s off
f 1//1 2//1 3//1 4//1
f 5//2 8//2 7//2 6//2
f 1//3 5//3 6//3 2//3
f 2//4 6//4 7//4 3//4
f 3//5 7//5 8//5 4//5
f 5//6 1//6 4//6 8//6
