# Blender v2.79 (sub 0) OBJ File: ''
# www.blender.org
o Cube
v 1.249713 -1.197579 0.063405
v 0.752045 0.032356 1.559930
v -1.183930 -0.335923 1.218797
v -0.686261 -1.565859 -0.277728
v 1.183930 0.335924 -1.218796
v 0.686261 1.565859 0.277728
v -1.249714 1.197579 -0.063406
v -0.752045 -0.032356 -1.559930
vn 0.0329 -0.7668 0.6411
vn -0.0329 0.7668 -0.6411
vn 0.9680 0.1841 0.1706
vn -0.2488 0.6150 0.7483
vn -0.9680 -0.1841 -0.1706
vn 0.2488 -0.6150 -0.7483
s off
f 1//1 2//1 3//1 4//1
f 5//2 8//2 7//2 6//2
f 1//3 5//3 6//3 2//3
f 2//4 6//4 7//4 3//4
f 3//5 7//5 8//5 4//5
f 5//6 1//6 4//6 8//6
