# Blender v2.79 (sub 0) OBJ File: ''
# www.blender.org
o Cube
v 0.701499 -1.402360 0.735720
v 0.072714 0.223566 1.716022
v -1.599874 0.237818 0.619552
v -0.971089 -1.388109 -0.360749
v 1.599874 -0.237818 -0.619552
v 0.971088 1.388109 0.360749
v -0.701499 1.402360 -0.735721
v -0.072714 -0.223566 -1.716022
vn -0.4492 -0.5823 0.6776
vn 0.4492 0.5823 -0.6776
vn 0.8363 -0.0071 0.5482
vn -0.3144 0.8130 0.4902
vn -0.8363 0.0071 -0.5482
vn 0.3144 -0.8130 -0.4902
s off
f 1//1 2//1 3//1 4//1
f 5//2 8//2 7//2 6//2
f 1//3 5//3 6//3 2//3
f 2//4 6//4 7//4 3//4
f 3//5 7//5 8//5 4//5
f 5//6 1//6 4//6 8//6
