# Blender v2.79 (sub 0) OBJ File: ''
# www.blender.org
o Cube
v 1.161506 -1.176372 -0.516772
v 0.938725 -0.520388 1.359409
v -1.045437 -0.704042 1.188018
v -0.822655 -1.360026 -0.688163
v 1.045437 0.704042 -1.188018
v 0.822655 1.360026 0.688163
v -1.161506 1.176372 0.516772
v -0.938725 0.520388 -1.359409
vn 0.0580 -0.9402 0.3356
vn -0.0580 0.9402 -0.3356
vn 0.9921 0.0918 0.0857
vn -0.1114 0.3280 0.9381
vn -0.9921 -0.0918 -0.0857
vn 0.1114 -0.3280 -0.9381
s off
f 1//1 2//1 3//1 4//1
f 5//2 8//2 7//2 6//2
f 1//3 5//3 6//3 2//3
f 2//4 6//4 7//4 3//4
f 3//5 7//5 8//5 4//5
f 5//6 1//6 4//6 8//6
