# Blender v2.79 (sub 0) OBJ File: ''
# www.blender.org
o Cube
v 0.535605 -1.363132 0.924661
v -0.034016 0.396508 1.685712
v -1.617052 0.412655 0.463527
v -1.047431 -1.346985 -0.297524
v 1.617053 -0.412655 -0.463526
v 1.047431 1.346985 0.297524
v -0.535605 1.363132 -0.924662
v 0.034016 -0.396508 -1.685712
vn -0.5407 -0.4752 0.6941
vn 0.5407 0.4752 -0.6941
vn 0.7915 -0.0081 0.6111
vn -0.2848 0.8798 0.3805
vn -0.7915 0.0081 -0.6111
vn 0.2848 -0.8798 -0.3805
s off
f 1//1 2//1 3//1 4//1
f 5//2 8//2 7//2 6//2
f 1//3 5//3 6//3 2//3
f 2//4 6//4 7//4 3//4
f 3//5 7//5 8//5 4//5
f 5//6 1//6 4//6 8//6
