# Blender v2.79 (sub 0) OBJ File: ''
# www.blender.org
o Cube
v 0.656802 -1.393481 0.791720
v 0.040701 0.273058 1.709907
v -1.607505 0.287846 0.577124
v -0.991404 -1.378693 -0.341063
v 1.607505 -0.287846 -0.577124
v 0.991404 1.378693 0.341063
v -0.656802 1.393481 -0.791721
v -0.040701 -0.273058 -1.709907
vn -0.4754 -0.5528 0.6844
vn 0.4754 0.5528 -0.6844
vn 0.8241 -0.0074 0.5664
vn -0.3081 0.8333 0.4591
vn -0.8241 0.0074 -0.5664
vn 0.3081 -0.8333 -0.4591
s off
f 1//1 2//1 3//1 4//1
f 5//2 8//2 7//2 6//2
f 1//3 5//3 6//3 2//3
f 2//4 6//4 7//4 3//4
f 3//5 7//5 8//5 4//5
f 5//6 1//6 4//6 8//6
