# Blender v2.79 (sub 0) OBJ File: ''
# www.blender.org
o Cube
v -0.800098 0.713952 1.360189
v 0.384635 1.687097 0.075901
v -0.527924 0.778525 -1.454371
v -1.712657 -0.194620 -0.170082
v 0.527924 -0.778525 1.454371
v 1.712657 0.194620 0.170082
v 0.800098 -0.713952 -1.360190
v -0.384635 -1.687097 -0.075901
vn -0.6640 0.7462 -0.0471
vn 0.6640 -0.7462 0.0471
vn 0.4563 0.4543 0.7651
vn 0.5924 0.4866 -0.6421
vn -0.4563 -0.4543 -0.7651
vn -0.5924 -0.4866 0.6421
s off
f 1//1 2//1 3//1 4//1
f 5//2 8//2 7//2 6//2
f 1//3 5//3 6//3 2//3
f 2//4 6//4 7//4 3//4
f 3//5 7//5 8//5 4//5
f 5//6 1//6 4//6 8//6
