# Blender v2.79 (sub 0) OBJ File: ''
# www.blender.org
o Cube
v -0.792035 1.328521 0.779559
v 0.543788 1.487878 -0.700368
v -0.377260 0.014278 -1.690406
v -1.713082 -0.145078 -0.210478
v 0.377261 -0.014278 1.690405
v 1.713082 0.145078 0.210478
v 0.792034 -1.328521 -0.779559
v -0.543788 -1.487878 0.700368
vn -0.5846 0.6714 -0.4554
vn 0.5846 -0.6714 0.4554
vn 0.4605 0.7368 0.4950
vn 0.6679 0.0797 -0.7400
vn -0.4605 -0.7368 -0.4950
vn -0.6679 -0.0797 0.7400
s off
f 1//1 2//1 3//1 4//1
f 5//2 8//2 7//2 6//2
f 1//3 5//3 6//3 2//3
f 2//4 6//4 7//4 3//4
f 3//5 7//5 8//5 4//5
f 5//6 1//6 4//6 8//6
