# Blender v2.79 (sub 0) OBJ File: ''
# www.blender.org
o Cube
v -0.361255 -1.229009 1.165775
v -0.391912 0.739799 1.516279
v -1.378309 1.029845 -0.199208
v -1.347651 -0.938964 -0.549712
v 1.378309 -1.029845 0.199209
v 1.347651 0.938964 0.549712
v 0.361255 1.229009 -1.165775
v 0.391912 -0.739799 -1.516279
vn -0.8698 -0.0996 0.4833
vn 0.8698 0.0996 -0.4833
vn 0.4932 -0.1450 0.8577
vn -0.0153 0.9844 0.1753
vn -0.4932 0.1450 -0.8577
vn 0.0153 -0.9844 -0.1753
s off
f 1//1 2//1 3//1 4//1
f 5//2 8//2 7//2 6//2
f 1//3 5//3 6//3 2//3
f 2//4 6//4 7//4 3//4
f 3//5 7//5 8//5 4//5
f 5//6 1//6 4//6 8//6
