# Blender v2.79 (sub 0) OBJ File: ''
# www.blender.org
o Cube
v 1.042280 -1.382846 0.037271
v 0.477284 -0.319364 1.634076
v -1.406384 -0.310947 0.961974
v -0.841389 -1.374429 -0.634831
v 1.406385 0.310947 -0.961974
v 0.841388 1.374429 0.634831
v -1.042280 1.382846 -0.037272
v -0.477284 0.319364 -1.634076
vn -0.1821 -0.8469 0.4996
vn 0.1821 0.8469 -0.4996
vn 0.9418 -0.0042 0.3361
vn -0.2825 0.5317 0.7984
vn -0.9418 0.0042 -0.3361
vn 0.2825 -0.5317 -0.7984
s off
f 1//1 2//1 3//1 4//1
f 5//2 8//2 7//2 6//2
f 1//3 5//3 6//3 2//3
f 2//4 6//4 7//4 3//4
f 3//5 7//5 8//5 4//5
f 5//6 1//6 4//6 8//6
