# Blender v2.79 (sub 0) OBJ File: ''
# www.blender.org
o Cube
v -0.820053 1.515282 0.177298
v 0.960291 1.261293 -0.697840
v 0.249647 -0.327998 -1.682288
v -1.530696 -0.074009 -0.807150
v -0.249647 0.327999 1.682288
v 1.530697 0.074009 0.807150
v 0.820052 -1.515282 -0.177298
v -0.960291 -1.261293 0.697840
vn -0.2852 0.5936 -0.7525
vn 0.2852 -0.5936 0.7525
vn 0.3553 0.7946 0.4922
vn 0.8902 -0.1270 -0.4376
vn -0.3553 -0.7946 -0.4922
vn -0.8902 0.1270 0.4376
s off
f 1//1 2//1 3//1 4//1
f 5//2 8//2 7//2 6//2
f 1//3 5//3 6//3 2//3
f 2//4 6//4 7//4 3//4
f 3//5 7//5 8//5 4//5
f 5//6 1//6 4//6 8//6
