# Blender v2.79 (sub 0) OBJ File: ''
# www.blender.org
o Cube
v 0.238565 -1.258902 1.165441
v -0.160367 0.652978 1.596215
v -1.584709 0.672090 0.192332
v -1.185776 -1.239790 -0.238441
v 1.584709 -0.672090 -0.192332
v 1.185776 1.239791 0.238441
v -0.238565 1.258902 -1.165441
v 0.160367 -0.652978 -1.596215
vn -0.6731 -0.2934 0.6789
vn 0.6731 0.2934 -0.6789
vn 0.7122 -0.0096 0.7019
vn -0.1995 0.9559 0.2154
vn -0.7122 0.0096 -0.7019
vn 0.1995 -0.9559 -0.2154
s off
f 1//1 2//1 3//1 4//1
f 5//2 8//2 7//2 6//2
f 1//3 5//3 6//3 2//3
f 2//4 6//4 7//4 3//4
f 3//5 7//5 8//5 4//5
f 5//6 1//6 4//6 8//6
