# Blender v2.79 (sub 0) OBJ File: ''
# www.blender.org
o Cube
v -0.642208 -0.193063 1.596965
v 0.020113 1.526170 0.818780
v -0.966498 1.138589 -0.877210
v -1.628818 -0.580644 -0.099025
v 0.966498 -1.138589 0.877210
v 1.628818 0.580644 0.099024
v 0.642207 0.193063 -1.596965
v -0.020112 -1.526170 -0.818780
vn -0.8044 0.4728 0.3599
vn 0.8044 -0.4728 -0.3599
vn 0.4933 0.1938 0.8480
vn 0.3312 0.8596 -0.3891
vn -0.4933 -0.1938 -0.8480
vn -0.3312 -0.8596 0.3891
s off
f 1//1 2//1 3//1 4//1
f 5//2 8//2 7//2 6//2
f 1//3 5//3 6//3 2//3
f 2//4 6//4 7//4 3//4
f 3//5 7//5 8//5 4//5
f 5//6 1//6 4//6 8//6
