# Blender v2.79 (sub 0) OBJ File: ''
# www.blender.org
o Cube
v -0.382166 -1.174711 1.214085
v -0.366404 0.806312 1.488492
v -1.355859 1.052514 -0.232079
v -1.371621 -0.928509 -0.506485
v 1.355859 -1.052514 0.232079
v 1.371620 0.928510 0.506485
v 0.382166 1.174711 -1.214086
v 0.366404 -0.806312 -1.488492
vn -0.8690 -0.0611 0.4910
vn 0.8690 0.0611 -0.4910
vn 0.4947 -0.1231 0.8603
vn 0.0079 0.9905 0.1372
vn -0.4947 0.1231 -0.8603
vn -0.0079 -0.9905 -0.1372
s off
f 1//1 2//1 3//1 4//1
f 5//2 8//2 7//2 6//2
f 1//3 5//3 6//3 2//3
f 2//4 6//4 7//4 3//4
f 3//5 7//5 8//5 4//5
f 5//6 1//6 4//6 8//6
