# Blender v2.79 (sub 0) OBJ File: ''
# www.blender.org
o Cube
v -0.470481 -0.905709 1.399406
v -0.250520 1.080945 1.329962
v -1.248640 1.130898 -0.402454
v -1.468600 -0.855757 -0.333008
v 1.248640 -1.130897 0.402454
v 1.468600 0.855757 0.333008
v 0.470480 0.905709 -1.399407
v 0.250520 -1.080945 -1.329962
vn -0.8596 0.1126 0.4985
vn 0.8596 -0.1126 -0.4985
vn 0.4991 -0.0250 0.8662
vn 0.1100 0.9933 -0.0347
vn -0.4991 0.0250 -0.8662
vn -0.1100 -0.9933 0.0347
s off
f 1//1 2//1 3//1 4//1
f 5//2 8//2 7//2 6//2
f 1//3 5//3 6//3 2//3
f 2//4 6//4 7//4 3//4
f 3//5 7//5 8//5 4//5
f 5//6 1//6 4//6 8//6
