# Blender v2.79 (sub 0) OBJ File: ''
# www.blender.org
o Cube
v 1.014364 -1.019372 -0.965373
v 1.000071 -0.964906 1.033834
v -0.999825 -0.979830 1.019943
v -0.985531 -1.034296 -0.979265
v 0.999825 0.979830 -1.019942
v 0.985531 1.034296 0.979265
v -1.014365 1.019372 0.965372
v -1.000071 0.964906 -1.033834
vn 0.0073 -0.9996 0.0273
vn -0.0073 0.9996 -0.0273
vn 0.9999 0.0075 0.0069
vn -0.0071 0.0272 0.9996
vn -0.9999 -0.0075 -0.0069
vn 0.0071 -0.0272 -0.9996
s off
f 1//1 2//1 3//1 4//1
f 5//2 8//2 7//2 6//2
f 1//3 5//3 6//3 2//3
f 2//4 6//4 7//4 3//4
f 3//5 7//5 8//5 4//5
f 5//6 1//6 4//6 8//6
