# Blender v2.79 (sub 0) OBJ File: ''
# www.blender.org
o Cube
v -0.553017 1.007542 1.295774
v 0.181381 1.664109 -0.444794
v -0.935031 0.322808 -1.421799
v -1.669428 -0.333758 0.318770
v 0.935031 -0.322808 1.421799
v 1.669428 0.333758 -0.318771
v 0.553016 -1.007542 -1.295774
v -0.181381 -1.664109 0.444794
vn -0.7440 0.6652 -0.0630
vn 0.7440 -0.6652 0.0630
vn 0.5582 0.6707 0.4885
vn 0.3672 0.3283 -0.8703
vn -0.5582 -0.6707 -0.4885
vn -0.3672 -0.3283 0.8703
s off
f 1//1 2//1 3//1 4//1
f 5//2 8//2 7//2 6//2
f 1//3 5//3 6//3 2//3
f 2//4 6//4 7//4 3//4
f 3//5 7//5 8//5 4//5
f 5//6 1//6 4//6 8//6
