# Blender v2.79 (sub 0) OBJ File: ''
# www.blender.org
o Cube
v -0.828408 1.505866 0.214730
v 0.958274 1.284840 -0.656428
v 0.261147 -0.279523 -1.689281
v -1.525534 -0.058497 -0.818122
v -0.261147 0.279523 1.689281
v 1.525534 0.058497 0.818122
v 0.828408 -1.505866 -0.214730
v -0.958274 -1.284840 0.656428
vn -0.2836 0.6132 -0.7373
vn 0.2836 -0.6132 0.7373
vn 0.3486 0.7822 0.5164
vn 0.8933 -0.1105 -0.4356
vn -0.3486 -0.7822 -0.5164
vn -0.8933 0.1105 0.4356
s off
f 1//1 2//1 3//1 4//1
f 5//2 8//2 7//2 6//2
f 1//3 5//3 6//3 2//3
f 2//4 6//4 7//4 3//4
f 3//5 7//5 8//5 4//5
f 5//6 1//6 4//6 8//6
