# Blender v2.79 (sub 0) OBJ File: ''
# www.blender.org
mtllib marker_obj.mtl
o Plane
v -1.000000 3.151489 1.000000
v 1.000000 3.151489 1.000000
v 1.000000 3.151489 -0.999999
v -1.000000 3.151489 -0.999999
v 0.000000 0.000000 0.000000
vt 0.656871 0.510940
vt 0.313742 0.806772
vt 0.313742 0.510940
vt 0.328436 0.425297
vt 0.656871 0.000000
vt 0.656871 0.510940
vt 0.328436 0.000000
vt 0.328436 0.510940
vt 0.000000 0.085643
vt 0.985307 0.489061
vt 0.985307 1.000000
vt 0.656871 0.574703
vt 0.656871 0.489061
vt 0.828436 0.000000
vt 1.000000 0.489061
vt 0.656871 0.806772
vn 0.0000 1.0000 0.0000
vn 0.0000 -0.3024 -0.9532
vn 0.0000 -0.3024 0.9532
vn 0.9532 -0.3024 -0.0000
vn -0.9532 -0.3024 -0.0000
usemtl None
s 1
f 2/1/1 4/2/1 1/3/1
f 3/4/2 5/5/2 4/6/2
f 1/7/3 5/8/3 2/9/3
f 2/10/4 5/11/4 3/12/4
f 4/13/5 5/14/5 1/15/5
f 2/1/1 3/16/1 4/2/1
